<svg xmlns="http://www.w3.org/2000/svg" xmlns:xlink="http://www.w3.org/1999/xlink" width="500" zoomAndPan="magnify" viewBox="0 0 375 374.999991" height="500" preserveAspectRatio="xMidYMid meet" version="1.0"><defs><clipPath id="7726e64282"><path d="M 24.6875 24 L 319 24 L 319 375 L 24.6875 375 Z M 24.6875 24 " clip-rule="nonzero"/></clipPath><clipPath id="bf3ce16119"><path d="M 71 0 L 365.1875 0 L 365.1875 303 L 71 303 Z M 71 0 " clip-rule="nonzero"/></clipPath><clipPath id="b33749a3b5"><path d="M 127.359375 37.5 L 228.609375 37.5 L 228.609375 106.5 L 127.359375 106.5 Z M 127.359375 37.5 " clip-rule="nonzero"/></clipPath></defs><g clip-path="url(#7726e64282)"><path fill="#5271ff" d="M 270.449219 304.882812 C 270.449219 258.40625 270.449219 212.640625 270.449219 166.863281 C 269.859375 166.640625 269.269531 166.417969 268.679688 166.183594 C 244.34375 196.742188 220 227.289062 194.777344 258.953125 C 185.800781 247.773438 177.203125 237.066406 167.839844 225.40625 C 121.933594 283.097656 76.390625 340.308594 30.472656 398.007812 C 28.378906 396.332031 26.703125 394.988281 24.710938 393.394531 C 122.449219 270.511719 219.824219 148.078125 318.441406 24.089844 C 318.441406 118.863281 318.441406 211.644531 318.441406 304.882812 C 302.683594 304.882812 287.335938 304.882812 270.449219 304.882812 Z M 270.449219 304.882812 " fill-opacity="1" fill-rule="nonzero"/></g><g clip-path="url(#bf3ce16119)"><path fill="#5271ff" d="M 71.136719 25.371094 C 106.804688 70.191406 141.359375 113.617188 176.683594 158.011719 C 179.367188 154.789062 181.726562 152.042969 183.972656 149.21875 C 240.625 77.957031 297.257812 6.65625 354 -64.542969 C 356.5 -67.671875 358.871094 -74.910156 365.121094 -66.667969 C 293.910156 22.859375 222.652344 112.460938 150.570312 203.09375 C 140.523438 190.652344 130.960938 178.789062 120.273438 165.5625 C 119.867188 169.039062 119.429688 171.03125 119.429688 173.035156 C 119.390625 193.691406 119.644531 214.359375 119.21875 235.003906 C 119.125 239.253906 117.53125 244.195312 114.957031 247.539062 C 101.023438 265.746094 86.554688 283.554688 71.125 302.941406 C 71.136719 209.914062 71.136719 118.648438 71.136719 25.371094 Z M 71.136719 25.371094 " fill-opacity="1" fill-rule="nonzero"/></g><g clip-path="url(#b33749a3b5)"><path fill="#5271ff" d="M 205.148438 97.242188 L 205.148438 63.464844 L 204.078125 63.101562 L 204.078125 96.980469 C 203.351562 96.796875 202.625 96.636719 201.875 96.476562 L 201.875 62.332031 L 200.808594 61.96875 L 200.808594 96.253906 C 200.078125 96.089844 199.351562 95.949219 198.605469 95.808594 L 198.605469 61.203125 L 197.535156 60.839844 L 197.535156 95.625 C 196.605469 95.464844 195.679688 95.304688 194.75 95.164062 L 194.75 53.347656 L 186.835938 58.941406 L 186.835938 94.253906 C 185.703125 94.171875 184.554688 94.09375 183.402344 94.03125 L 183.402344 49.734375 L 182.332031 49.371094 L 182.332031 93.992188 C 181.605469 93.972656 180.878906 93.949219 180.132812 93.929688 L 180.132812 48.625 L 179.0625 48.261719 L 179.0625 93.929688 C 178.636719 93.929688 178.214844 93.929688 177.789062 93.929688 C 175.972656 93.929688 174.175781 93.972656 172.378906 94.050781 L 172.378906 37.5 L 162.75 44.808594 L 162.75 62.738281 L 166.867188 64.554688 L 166.664062 94.4375 C 166.039062 94.496094 165.394531 94.558594 164.769531 94.636719 L 164.769531 70.953125 L 163.699219 70.53125 L 163.699219 94.757812 C 162.972656 94.859375 162.222656 94.941406 161.496094 95.0625 L 161.496094 69.664062 L 160.425781 69.238281 L 160.425781 95.222656 C 159.699219 95.34375 158.953125 95.464844 158.226562 95.585938 L 158.226562 68.351562 L 157.15625 67.925781 L 157.15625 95.769531 C 156.308594 95.929688 155.460938 96.089844 154.632812 96.273438 L 154.632812 59.929688 L 146.273438 65.828125 L 146.273438 98.394531 C 139.53125 100.433594 133.128906 103.117188 127.375 106.347656 C 142.257812 101.480469 159.476562 98.695312 177.851562 98.695312 C 196.222656 98.695312 213.445312 101.480469 228.324219 106.347656 C 221.421875 102.472656 213.605469 99.363281 205.148438 97.242188 Z M 205.148438 97.242188 " fill-opacity="1" fill-rule="nonzero"/></g><path fill="#5271ff" d="M 176.921875 47.492188 L 175.871094 47.128906 L 175.871094 93.910156 L 176.921875 93.910156 Z M 176.921875 47.492188 " fill-opacity="1" fill-rule="nonzero"/></svg>