<svg xmlns="http://www.w3.org/2000/svg" xmlns:xlink="http://www.w3.org/1999/xlink" width="1080" zoomAndPan="magnify" viewBox="0 0 810 809.999993" height="1080" preserveAspectRatio="xMidYMid meet" version="1.0"><defs><filter x="0%" y="0%" width="100%" height="100%" id="162fced901"><feColorMatrix values="0 0 0 0 1 0 0 0 0 1 0 0 0 0 1 0 0 0 1 0" color-interpolation-filters="sRGB"/></filter><mask id="e4f3abb733"><g filter="url(#162fced901)"><rect x="-81" width="972" fill="#000000" y="-80.999999" height="971.999992" fill-opacity="0.1"/></g></mask><clipPath id="205e38291b"><path d="M 0.0390625 1 L 380 1 L 380 85 L 0.0390625 85 Z M 0.0390625 1 " clip-rule="nonzero"/></clipPath><clipPath id="93c4c0c1e5"><path d="M 379.523438 35.433594 C 328.496094 9.933594 264.457031 -1.222656 187.917969 2.175781 C 111.382812 5.570312 48.558594 24.699219 0.449219 59.113281 C 4.0625 68.003906 8.226562 76.625 12.945312 84.980469 C 57.097656 51.929688 116.152344 33.582031 189.261719 30.320312 C 261.625 27.101562 321.511719 37.609375 368.515625 61.558594 C 372.753906 53.089844 376.421875 44.382812 379.523438 35.433594 Z M 379.523438 35.433594 " clip-rule="nonzero"/></clipPath><clipPath id="430b3e5db5"><rect x="0" width="381" y="0" height="86"/></clipPath><mask id="9314d3faec"><g filter="url(#162fced901)"><rect x="-81" width="972" fill="#000000" y="-80.999999" height="971.999992" fill-opacity="0.05"/></g></mask><clipPath id="81952a2d73"><path d="M 1 1 L 448 1 L 448 428 L 1 428 Z M 1 1 " clip-rule="nonzero"/></clipPath><clipPath id="2167e2a5d7"><path d="M 447.792969 216.027344 C 446.25 244.195312 442.949219 270.34375 438.417969 291.410156 C 437.960938 293.5625 437.480469 295.667969 437.003906 297.65625 C 432.410156 317.035156 426.726562 331.363281 420.4375 337.863281 C 415.019531 343.464844 403.265625 348.273438 387.113281 352.441406 C 365.464844 388.148438 326.871094 412.753906 274.027344 427.863281 C 294.089844 406.21875 306.199219 385.007812 310.359375 364.238281 C 210.441406 373.484375 76.894531 369.695312 51.070312 353.023438 C 11.269531 327.367188 -13.722656 76.9375 11.5625 37.722656 C 14.683594 32.933594 21.902344 28.109375 32.386719 23.371094 C 32.855469 23.144531 33.324219 22.933594 33.8125 22.726562 C 51.121094 15.09375 76.613281 7.667969 106.164062 1.027344 C 104.28125 76.3125 123.097656 174.792969 225.09375 211.113281 C 306.046875 239.894531 385.695312 232.367188 447.792969 216.027344 Z M 447.792969 216.027344 " clip-rule="nonzero"/></clipPath><clipPath id="491348f6bd"><rect x="0" width="449" y="0" height="429"/></clipPath><mask id="00b0708d3c"><g filter="url(#162fced901)"><rect x="-81" width="972" fill="#000000" y="-80.999999" height="971.999992" fill-opacity="0.1"/></g></mask><clipPath id="58e9b4d2f5"><path d="M 0.078125 1 L 331 1 L 331 96.601562 L 0.078125 96.601562 Z M 0.078125 1 " clip-rule="nonzero"/></clipPath><clipPath id="2d17a9f9f5"><path d="M 21.589844 93.582031 C 55.039062 103.878906 298.699219 84.09375 317.492188 77.261719 C 330.167969 72.640625 333.84375 58.90625 328.511719 38.671875 C 302.476562 45.160156 234.511719 58.75 149.945312 49.398438 C 83.132812 42.015625 48.738281 18.40625 32.152344 1.382812 C 25.320312 5.691406 20.21875 10.578125 17.3125 16.074219 C -1.441406 51.574219 -10.625 83.667969 21.589844 93.582031 Z M 21.589844 93.582031 " clip-rule="nonzero"/></clipPath><clipPath id="df4600da66"><rect x="0" width="332" y="0" height="97"/></clipPath><mask id="1587cc3dbd"><g filter="url(#162fced901)"><rect x="-81" width="972" fill="#000000" y="-80.999999" height="971.999992" fill-opacity="0.1"/></g></mask><clipPath id="8fedb33055"><path d="M 595 1 L 628.71875 1 L 628.71875 62 L 595 62 Z M 595 1 " clip-rule="nonzero"/></clipPath><clipPath id="e274d521c3"><path d="M 628.582031 14.992188 C 618.707031 11.558594 609.382812 7.007812 600.601562 1.339844 C 600.601562 24.886719 598.121094 43.984375 595.613281 54.738281 L 623.050781 61.144531 C 625.445312 50.761719 627.777344 34.664062 628.582031 14.992188 Z M 628.582031 14.992188 " clip-rule="nonzero"/></clipPath><clipPath id="d8a18e8430"><path d="M 1 11 L 33 11 L 33 63 L 1 63 Z M 1 11 " clip-rule="nonzero"/></clipPath><clipPath id="242b14034d"><path d="M 32.496094 58.175781 C 30.898438 46.566406 30.03125 34.90625 29.902344 23.1875 C 17.324219 20.480469 8.296875 16.253906 1.675781 11.546875 C 1.300781 41.585938 4.507812 61.632812 4.683594 62.726562 Z M 32.496094 58.175781 " clip-rule="nonzero"/></clipPath><clipPath id="285ed1cab9"><rect x="0" width="629" y="0" height="64"/></clipPath><mask id="9327c764cc"><g filter="url(#162fced901)"><rect x="-81" width="972" fill="#000000" y="-80.999999" height="971.999992" fill-opacity="0.1"/></g></mask><clipPath id="c82f3ef47a"><path d="M 1 1 L 89.601562 1 L 89.601562 190 L 1 190 Z M 1 1 " clip-rule="nonzero"/></clipPath><clipPath id="83837e2720"><path d="M 64.585938 6.476562 C 61.617188 -0.449219 35.304688 -0.8125 10.695312 8.871094 C 19.507812 33.03125 30.386719 76.777344 19.496094 127.582031 C 14.683594 150.011719 8.269531 166.769531 1.617188 179.273438 C 20.183594 189.863281 46.601562 193.539062 83.453125 185.304688 C 101.894531 181.199219 69.0625 16.902344 64.585938 6.476562 Z M 64.585938 6.476562 " clip-rule="nonzero"/></clipPath><clipPath id="92ebc2006d"><rect x="0" width="90" y="0" height="191"/></clipPath><mask id="1f4865e222"><g filter="url(#162fced901)"><rect x="-81" width="972" fill="#000000" y="-80.999999" height="971.999992" fill-opacity="0.1"/></g></mask><clipPath id="2151bf8e21"><path d="M 0.121094 1 L 48.359375 1 L 48.359375 221 L 0.121094 221 Z M 0.121094 1 " clip-rule="nonzero"/></clipPath><clipPath id="1065cb247f"><path d="M 22.714844 139.5625 C 18.820312 174.21875 11.0625 197.335938 3.097656 212.632812 C 19.757812 226.074219 42.5625 221.285156 47.195312 202.425781 C 52.402344 181.484375 32.316406 26.339844 27.777344 13.8125 C 25.285156 6.867188 12.789062 0.472656 0.921875 1.148438 C 11.8125 25.464844 29.773438 76.855469 22.714844 139.5625 Z M 22.714844 139.5625 " clip-rule="nonzero"/></clipPath><clipPath id="85b416588b"><rect x="0" width="49" y="0" height="222"/></clipPath><mask id="337bed4268"><g filter="url(#162fced901)"><rect x="-81" width="972" fill="#000000" y="-80.999999" height="971.999992" fill-opacity="0.1"/></g></mask><clipPath id="4d5a66d9da"><path d="M 0.398438 1 L 88.960938 1 L 88.960938 190 L 0.398438 190 Z M 0.398438 1 " clip-rule="nonzero"/></clipPath><clipPath id="0883a84278"><path d="M 25.308594 6.324219 C 28.277344 -0.609375 54.59375 -0.964844 79.199219 8.722656 C 70.390625 32.871094 59.507812 76.625 70.398438 127.429688 C 75.210938 149.863281 81.605469 166.617188 88.277344 179.121094 C 69.710938 189.710938 43.292969 193.378906 6.441406 185.152344 C -12 181.027344 20.832031 16.75 25.308594 6.324219 Z M 25.308594 6.324219 " clip-rule="nonzero"/></clipPath><clipPath id="0ebd06b23d"><rect x="0" width="89" y="0" height="191"/></clipPath><mask id="57b13d25c5"><g filter="url(#162fced901)"><rect x="-81" width="972" fill="#000000" y="-80.999999" height="971.999992" fill-opacity="0.1"/></g></mask><clipPath id="ede2fba1a6"><path d="M 0.640625 0.800781 L 48 0.800781 L 48 220.640625 L 0.640625 220.640625 Z M 0.640625 0.800781 " clip-rule="nonzero"/></clipPath><clipPath id="b5df810c25"><path d="M 26.179688 139.390625 C 30.074219 174.046875 37.832031 197.171875 45.796875 212.46875 C 29.136719 225.914062 6.332031 221.125 1.699219 202.265625 C -3.507812 181.324219 16.578125 26.179688 21.121094 13.652344 C 23.628906 6.707031 36.082031 0.320312 47.976562 0.988281 C 37.082031 25.324219 19.121094 76.691406 26.179688 139.390625 Z M 26.179688 139.390625 " clip-rule="nonzero"/></clipPath><clipPath id="21eec1efc8"><rect x="0" width="49" y="0" height="221"/></clipPath><mask id="f72da15ccd"><g filter="url(#162fced901)"><rect x="-81" width="972" fill="#000000" y="-80.999999" height="971.999992" fill-opacity="0.1"/></g></mask><clipPath id="05f5bce1fa"><path d="M 1 1 L 23.921875 1 L 23.921875 28.601562 L 1 28.601562 Z M 1 1 " clip-rule="nonzero"/></clipPath><clipPath id="5363c1ec89"><path d="M 23.671875 27.316406 C 16.554688 27.816406 9.304688 28.136719 1.917969 28.273438 L 1.40625 1.949219 C 8.351562 1.816406 15.125 1.519531 21.734375 1.054688 C 20.886719 5.441406 20.628906 9.859375 20.957031 14.3125 C 21.285156 18.769531 22.191406 23.101562 23.671875 27.316406 Z M 23.671875 27.316406 " clip-rule="nonzero"/></clipPath><clipPath id="3be3b3228c"><rect x="0" width="24" y="0" height="29"/></clipPath><mask id="546931dd5c"><g filter="url(#162fced901)"><rect x="-81" width="972" fill="#000000" y="-80.999999" height="971.999992" fill-opacity="0.1"/></g></mask><clipPath id="25a956fd13"><path d="M 1 0.839844 L 131 0.839844 L 131 60 L 1 60 Z M 1 0.839844 " clip-rule="nonzero"/></clipPath><clipPath id="f7b33d43c6"><path d="M 48.714844 33.371094 C 28.710938 24.375 15.671875 12.253906 7.230469 0.902344 C -1.664062 19.085938 -0.269531 46.71875 10.46875 54.59375 C 22.378906 63.339844 114.285156 59.050781 121.886719 55.226562 C 126.105469 53.144531 130.605469 39.128906 130.957031 24.914062 C 116.066406 34.757812 84.933594 49.636719 48.714844 33.371094 Z M 48.714844 33.371094 " clip-rule="nonzero"/></clipPath><clipPath id="af4b230402"><rect x="0" width="132" y="0" height="61"/></clipPath><mask id="d9828b6d53"><g filter="url(#162fced901)"><rect x="-81" width="972" fill="#000000" y="-80.999999" height="971.999992" fill-opacity="0.05"/></g></mask><clipPath id="e19df79b58"><path d="M 1 0.078125 L 439 0.078125 L 439 405 L 1 405 Z M 1 0.078125 " clip-rule="nonzero"/></clipPath><clipPath id="5f51212f38"><path d="M 438.429688 268.410156 C 437.972656 270.5625 437.492188 272.667969 437.011719 274.65625 C 432.421875 294.035156 426.734375 308.363281 420.445312 314.863281 C 415.03125 320.464844 403.273438 325.273438 387.125 329.441406 C 365.464844 365.148438 326.871094 389.753906 274.027344 404.863281 C 294.089844 383.21875 306.199219 362.007812 310.359375 341.238281 C 210.441406 350.484375 76.894531 346.695312 51.070312 330.023438 C 11.269531 304.367188 -13.722656 53.9375 11.5625 14.722656 C 14.683594 9.933594 21.902344 5.109375 32.386719 0.371094 C 35.71875 69.351562 50.621094 207.5 116.097656 248.6875 C 199.375 301.105469 335.671875 295.703125 438.429688 268.410156 Z M 438.429688 268.410156 " clip-rule="nonzero"/></clipPath><clipPath id="f00d6c4f02"><rect x="0" width="440" y="0" height="406"/></clipPath></defs><rect x="-81" width="972" fill="#ffffff" y="-80.999999" height="971.999992" fill-opacity="1"/><rect x="-81" width="972" fill="#ffffff" y="-80.999999" height="971.999992" fill-opacity="1"/><path fill="#d9d9d9" d="M 629.164062 666.152344 C 586.9375 710.171875 527.300781 735.078125 451.671875 740.316406 C 444.554688 740.816406 437.304688 741.136719 429.917969 741.273438 L 429.40625 714.949219 C 436.351562 714.816406 443.125 714.519531 449.734375 714.054688 C 518.703125 709.285156 572.609375 687.082031 610.160156 647.941406 C 668.371094 587.230469 667.265625 506.082031 667.257812 505.28125 L 693.570312 504.695312 C 693.652344 508.445312 694.863281 597.65625 629.164062 666.152344 Z M 629.164062 666.152344 " fill-opacity="1" fill-rule="nonzero"/><path fill="#d9d9d9" d="M 102.683594 383.757812 C 102.445312 382.308594 96.933594 347.84375 101.351562 300.910156 C 107.234375 238.429688 128.238281 183.304688 162.082031 141.589844 C 212.929688 78.972656 291.953125 44.839844 396.960938 40.175781 C 518.921875 34.75 609.296875 66.332031 665.515625 134.039062 C 738.148438 221.507812 730.203125 342.792969 721.019531 382.144531 L 693.582031 375.738281 C 701.328125 342.574219 708.804688 230.289062 643.835938 152.042969 C 593.550781 91.480469 510.921875 63.3125 398.210938 68.320312 C 301.699219 72.621094 229.660156 103.226562 184.09375 159.195312 C 145.886719 206.179688 133.308594 263.164062 129.488281 302.679688 C 125.320312 346.21875 130.445312 378.882812 130.527344 379.207031 Z M 102.683594 383.757812 " fill-opacity="1" fill-rule="nonzero"/><path fill="#d9d9d9" d="M 564.582031 213.78125 C 519.605469 189.332031 213.855469 231.484375 188.5625 270.722656 C 163.265625 309.960938 188.269531 560.367188 228.046875 586.023438 C 253.894531 602.683594 387.441406 606.484375 487.335938 597.238281 C 483.171875 618.015625 471.058594 639.226562 450.996094 660.863281 C 503.871094 645.753906 542.476562 621.136719 564.144531 585.449219 C 580.273438 581.359375 592.03125 576.507812 597.46875 570.871094 C 632.207031 534.957031 648.617188 259.476562 564.582031 213.78125 Z M 564.582031 213.78125 " fill-opacity="1" fill-rule="nonzero"/><path fill="#ffffff" d="M 312.164062 388.078125 C 312.414062 392.273438 311.863281 396.363281 310.519531 400.347656 C 309.179688 404.292969 307.351562 407.996094 305.03125 411.457031 C 302.671875 415 299.976562 418.261719 296.941406 421.246094 C 293.996094 424.167969 290.890625 426.90625 287.621094 429.460938 L 312.769531 428.117188 L 312.675781 461.335938 L 238.042969 462.878906 L 236.453125 433.90625 C 239.226562 432.804688 242.125 431.488281 245.136719 429.960938 C 248.203125 428.402344 251.167969 426.664062 254.027344 424.753906 C 256.921875 422.847656 259.65625 420.730469 262.222656 418.402344 C 264.730469 416.144531 266.960938 413.640625 268.917969 410.894531 C 270.808594 408.222656 272.273438 405.335938 273.3125 402.230469 C 274.355469 399.011719 274.773438 395.714844 274.5625 392.339844 C 274.496094 390.480469 274.039062 388.726562 273.199219 387.070312 C 272.421875 385.589844 271.355469 384.355469 270.003906 383.371094 C 268.625 382.378906 267.105469 381.683594 265.453125 381.289062 C 263.667969 380.871094 261.863281 380.71875 260.039062 380.832031 C 258.402344 380.925781 256.796875 381.1875 255.214844 381.613281 C 253.574219 382.058594 251.980469 382.636719 250.4375 383.351562 C 248.894531 384.070312 247.441406 384.941406 246.074219 385.953125 C 244.742188 386.929688 243.542969 388.042969 242.46875 389.296875 L 233.742188 358.484375 C 235.636719 356.382812 237.804688 354.617188 240.242188 353.183594 C 242.742188 351.707031 245.363281 350.484375 248.105469 349.519531 C 250.878906 348.542969 253.710938 347.785156 256.601562 347.25 C 259.433594 346.714844 262.285156 346.371094 265.160156 346.207031 C 271.222656 345.820312 277.125 346.628906 282.863281 348.625 C 288.300781 350.511719 293.183594 353.359375 297.503906 357.164062 C 301.816406 360.996094 305.226562 365.507812 307.742188 370.699219 C 310.414062 376.1875 311.890625 381.980469 312.164062 388.078125 Z M 312.164062 388.078125 " fill-opacity="1" fill-rule="nonzero"/><path fill="#ffffff" d="M 401.96875 420.027344 L 394.972656 420.566406 L 395.429688 455.035156 L 359.628906 460.191406 L 359.523438 423.316406 L 317.070312 426.609375 L 325.015625 356.078125 L 355.097656 354.433594 L 349.019531 403.617188 L 359.503906 402.71875 L 359.222656 342.230469 L 393.765625 340.335938 L 394.617188 399.511719 L 400.804688 398.855469 Z M 401.96875 420.027344 " fill-opacity="1" fill-rule="nonzero"/><path fill="#ffffff" d="M 472.433594 379.550781 C 464.929688 398.53125 458.070312 417.789062 451.859375 437.324219 C 445.644531 456.859375 439.953125 476.554688 434.78125 496.40625 L 402.269531 485.746094 C 405.609375 475.929688 408.957031 466.125 412.308594 456.335938 C 415.664062 446.550781 419.109375 436.796875 422.648438 427.078125 C 426.175781 417.359375 429.890625 407.722656 433.792969 398.167969 C 437.695312 388.617188 441.878906 379.160156 446.351562 369.804688 Z M 472.433594 379.550781 " fill-opacity="1" fill-rule="nonzero"/><path fill="#ffffff" d="M 554.472656 431.480469 C 549.945312 446.753906 545.839844 460.636719 542.152344 473.132812 C 540.582031 478.4375 539.035156 483.667969 537.507812 488.828125 C 535.980469 493.984375 534.574219 498.695312 533.289062 502.957031 C 532.007812 507.207031 530.941406 510.789062 530.09375 513.703125 C 529.246094 516.621094 528.703125 518.433594 528.46875 519.140625 L 486.640625 519.046875 L 519.066406 437.917969 L 475.894531 442.695312 L 474.007812 408.332031 L 552.886719 402.5625 Z M 554.472656 431.480469 " fill-opacity="1" fill-rule="nonzero"/><g mask="url(#e4f3abb733)"><g transform="matrix(1, 0, 0, 1, 209, 38)"><g clip-path="url(#430b3e5db5)"><g clip-path="url(#205e38291b)"><g clip-path="url(#93c4c0c1e5)"><path fill="#000000" d="M 0.449219 0.640625 L 0.449219 84.980469 L 379.523438 84.980469 L 379.523438 0.640625 Z M 0.449219 0.640625 " fill-opacity="1" fill-rule="nonzero"/></g></g></g></g></g><g mask="url(#9314d3faec)"><g transform="matrix(1, 0, 0, 1, 177, 233)"><g clip-path="url(#491348f6bd)"><g clip-path="url(#81952a2d73)"><g clip-path="url(#2167e2a5d7)"><path fill="#000000" d="M 0.839844 1.027344 L 0.839844 427.863281 L 447.792969 427.863281 L 447.792969 1.027344 Z M 0.839844 1.027344 " fill-opacity="1" fill-rule="nonzero"/></g></g></g></g></g><path fill="#d9d9d9" d="M 253.589844 132.582031 C 221.375 122.667969 230.558594 90.574219 249.3125 55.074219 C 278.324219 0.136719 525.167969 6.601562 543.839844 39.351562 C 567.207031 80.304688 569.058594 109.121094 549.492188 116.261719 C 530.699219 123.09375 287.039062 142.878906 253.589844 132.582031 Z M 253.589844 132.582031 " fill-opacity="1" fill-rule="nonzero"/><g mask="url(#00b0708d3c)"><g transform="matrix(1, 0, 0, 1, 232, 39)"><g clip-path="url(#df4600da66)"><g clip-path="url(#58e9b4d2f5)"><g clip-path="url(#2d17a9f9f5)"><path fill="#000000" d="M 0.078125 1.382812 L 0.078125 96.601562 L 331.28125 96.601562 L 331.28125 1.382812 Z M 0.078125 1.382812 " fill-opacity="1" fill-rule="nonzero"/></g></g></g></g></g><g mask="url(#1587cc3dbd)"><g transform="matrix(1, 0, 0, 1, 98, 321)"><g clip-path="url(#285ed1cab9)"><g clip-path="url(#8fedb33055)"><g clip-path="url(#e274d521c3)"><path fill="#000000" d="M 595.613281 1.339844 L 595.613281 61.144531 L 628.582031 61.144531 L 628.582031 1.339844 Z M 595.613281 1.339844 " fill-opacity="1" fill-rule="nonzero"/></g></g><g clip-path="url(#d8a18e8430)"><g clip-path="url(#242b14034d)"><path fill="#000000" d="M 1.300781 11.546875 L 1.300781 62.726562 L 32.496094 62.726562 L 32.496094 11.546875 Z M 1.300781 11.546875 " fill-opacity="1" fill-rule="nonzero"/></g></g></g></g></g><path fill="#d9d9d9" d="M 135.453125 560.304688 C -12.257812 593.3125 7.527344 434.992188 29.988281 406.707031 C 54.84375 375.417969 112.117188 371.054688 116.585938 381.476562 C 121.050781 391.902344 153.894531 556.199219 135.453125 560.304688 Z M 135.453125 560.304688 " fill-opacity="1" fill-rule="nonzero"/><g mask="url(#9327c764cc)"><g transform="matrix(1, 0, 0, 1, 52, 375)"><g clip-path="url(#92ebc2006d)"><g clip-path="url(#c82f3ef47a)"><g clip-path="url(#83837e2720)"><path fill="#000000" d="M 1.617188 0.839844 L 1.617188 190.679688 L 89.601562 190.679688 L 89.601562 0.839844 Z M 1.617188 0.839844 " fill-opacity="1" fill-rule="nonzero"/></g></g></g></g></g><path fill="#d9d9d9" d="M 158.15625 563.425781 C 153.011719 584.367188 125.507812 587.980469 108.753906 568.507812 C 92 549.035156 87.054688 391.316406 89.800781 380.757812 C 97.402344 351.601562 134.246094 362.285156 138.746094 374.8125 C 143.242188 387.339844 163.359375 542.484375 158.15625 563.425781 Z M 158.15625 563.425781 " fill-opacity="1" fill-rule="nonzero"/><g mask="url(#1f4865e222)"><g transform="matrix(1, 0, 0, 1, 111, 361)"><g clip-path="url(#85b416588b)"><g clip-path="url(#2151bf8e21)"><g clip-path="url(#1065cb247f)"><path fill="#000000" d="M 0.921875 0.472656 L 0.921875 221.238281 L 48.359375 221.238281 L 48.359375 0.472656 Z M 0.921875 0.472656 " fill-opacity="1" fill-rule="nonzero"/></g></g></g></g></g><path fill="#d9d9d9" d="M 674.441406 545.152344 C 822.152344 578.160156 802.367188 419.839844 779.90625 391.558594 C 755.050781 360.265625 697.777344 355.902344 693.308594 366.324219 C 688.84375 376.75 656 541.027344 674.441406 545.152344 Z M 674.441406 545.152344 " fill-opacity="1" fill-rule="nonzero"/><g mask="url(#337bed4268)"><g transform="matrix(1, 0, 0, 1, 668, 360)"><g clip-path="url(#0ebd06b23d)"><g clip-path="url(#4d5a66d9da)"><g clip-path="url(#0883a84278)"><path fill="#000000" d="M 0.398438 0.238281 L 0.398438 190.078125 L 88.277344 190.078125 L 88.277344 0.238281 Z M 0.398438 0.238281 " fill-opacity="1" fill-rule="nonzero"/></g></g></g></g></g><path fill="#d9d9d9" d="M 651.742188 548.277344 C 656.882812 569.21875 684.386719 572.820312 701.140625 553.359375 C 717.894531 533.894531 722.84375 376.167969 720.09375 365.636719 C 712.492188 336.480469 675.648438 347.164062 671.152344 359.691406 C 666.652344 372.21875 646.535156 527.335938 651.742188 548.277344 Z M 651.742188 548.277344 " fill-opacity="1" fill-rule="nonzero"/><g mask="url(#57b13d25c5)"><g transform="matrix(1, 0, 0, 1, 650, 346)"><g clip-path="url(#21eec1efc8)"><g clip-path="url(#ede2fba1a6)"><g clip-path="url(#b5df810c25)"><path fill="#000000" d="M 0.640625 0.800781 L 0.640625 220.640625 L 47.976562 220.640625 L 47.976562 0.800781 Z M 0.640625 0.800781 " fill-opacity="1" fill-rule="nonzero"/></g></g></g></g></g><g mask="url(#f72da15ccd)"><g transform="matrix(1, 0, 0, 1, 428, 713)"><g clip-path="url(#3be3b3228c)"><g clip-path="url(#05f5bce1fa)"><g clip-path="url(#5363c1ec89)"><path fill="#000000" d="M 1.40625 1.054688 L 1.40625 28.273438 L 23.671875 28.273438 L 23.671875 1.054688 Z M 1.40625 1.054688 " fill-opacity="1" fill-rule="nonzero"/></g></g></g></g></g><path fill="#d9d9d9" d="M 314.46875 753.550781 C 302.542969 744.804688 302.136719 711.679688 314.550781 694.195312 C 326.964844 676.710938 419.453125 690.636719 425.449219 695.238281 C 442.039062 707.941406 433.488281 750.363281 425.886719 754.175781 C 418.285156 757.988281 326.390625 762.296875 314.46875 753.550781 Z M 314.46875 753.550781 " fill-opacity="1" fill-rule="nonzero"/><g mask="url(#546931dd5c)"><g transform="matrix(1, 0, 0, 1, 304, 699)"><g clip-path="url(#af4b230402)"><g clip-path="url(#25a956fd13)"><g clip-path="url(#f7b33d43c6)"><path fill="#000000" d="M 0.800781 0.902344 L 0.800781 60.359375 L 130.957031 60.359375 L 130.957031 0.902344 Z M 0.800781 0.902344 " fill-opacity="1" fill-rule="nonzero"/></g></g></g></g></g><path fill="#d9d9d9" d="M 518.628906 193.382812 L 518.566406 193.382812 C 513.847656 193.320312 509.058594 193.300781 504.320312 193.308594 C 503.964844 193.328125 503.613281 193.304688 503.261719 193.25 C 502.910156 193.195312 502.566406 193.105469 502.234375 192.980469 C 501.902344 192.855469 501.582031 192.695312 501.28125 192.507812 C 500.980469 192.316406 500.703125 192.101562 500.445312 191.855469 C 500.1875 191.609375 499.957031 191.339844 499.753906 191.046875 C 499.550781 190.753906 499.382812 190.445312 499.242188 190.117188 C 499.101562 189.789062 498.996094 189.453125 498.925781 189.101562 C 498.851562 188.753906 498.816406 188.402344 498.816406 188.046875 C 498.816406 187.691406 498.851562 187.339844 498.925781 186.988281 C 498.996094 186.640625 499.101562 186.304688 499.242188 185.976562 C 499.382812 185.648438 499.550781 185.339844 499.753906 185.046875 C 499.957031 184.753906 500.1875 184.484375 500.445312 184.238281 C 500.703125 183.992188 500.980469 183.773438 501.28125 183.585938 C 501.582031 183.398438 501.902344 183.238281 502.234375 183.113281 C 502.566406 182.988281 502.910156 182.898438 503.261719 182.84375 C 503.613281 182.785156 503.964844 182.765625 504.320312 182.78125 C 509.101562 182.78125 513.941406 182.78125 518.710938 182.855469 C 519.046875 182.871094 519.378906 182.921875 519.707031 183 C 520.03125 183.082031 520.347656 183.191406 520.652344 183.332031 C 520.957031 183.472656 521.246094 183.640625 521.519531 183.835938 C 521.792969 184.035156 522.046875 184.253906 522.277344 184.496094 C 522.507812 184.742188 522.714844 185.007812 522.894531 185.289062 C 523.074219 185.574219 523.226562 185.871094 523.351562 186.183594 C 523.472656 186.496094 523.566406 186.820312 523.628906 187.148438 C 523.691406 187.480469 523.71875 187.8125 523.71875 188.148438 C 523.714844 188.484375 523.683594 188.820312 523.617188 189.148438 C 523.550781 189.476562 523.453125 189.796875 523.328125 190.109375 C 523.199219 190.421875 523.042969 190.71875 522.859375 191 C 522.675781 191.28125 522.46875 191.542969 522.234375 191.785156 C 522 192.023438 521.746094 192.242188 521.46875 192.433594 C 521.195312 192.628906 520.902344 192.792969 520.597656 192.929688 C 520.289062 193.066406 519.972656 193.171875 519.644531 193.25 C 519.316406 193.324219 518.984375 193.371094 518.648438 193.382812 Z M 518.628906 193.382812 " fill-opacity="1" fill-rule="nonzero"/><path fill="#d9d9d9" d="M 273.824219 220.417969 C 272.941406 220.453125 272.105469 220.269531 271.316406 219.863281 C 270.527344 219.460938 269.894531 218.886719 269.410156 218.144531 C 269.125 217.746094 268.902344 217.3125 268.738281 216.847656 C 268.574219 216.386719 268.476562 215.910156 268.445312 215.417969 C 268.417969 214.925781 268.453125 214.441406 268.558594 213.960938 C 268.664062 213.480469 268.832031 213.027344 269.066406 212.59375 C 269.296875 212.160156 269.585938 211.765625 269.929688 211.414062 C 270.269531 211.0625 270.65625 210.761719 271.082031 210.515625 C 271.507812 210.273438 271.957031 210.089844 272.433594 209.96875 C 272.910156 209.851562 273.394531 209.800781 273.886719 209.816406 C 274.980469 209.605469 277.5 209.035156 280.136719 208.441406 C 340.703125 194.566406 402.027344 186.308594 464.105469 183.667969 C 464.449219 183.652344 464.792969 183.671875 465.136719 183.722656 C 465.476562 183.777344 465.808594 183.863281 466.136719 183.980469 C 466.460938 184.097656 466.769531 184.246094 467.066406 184.425781 C 467.359375 184.605469 467.636719 184.8125 467.890625 185.046875 C 468.144531 185.28125 468.375 185.535156 468.578125 185.816406 C 468.785156 186.09375 468.957031 186.390625 469.105469 186.703125 C 469.25 187.015625 469.363281 187.339844 469.445312 187.675781 C 469.527344 188.011719 469.578125 188.351562 469.59375 188.699219 C 469.609375 189.042969 469.589844 189.386719 469.535156 189.726562 C 469.484375 190.070312 469.398438 190.402344 469.28125 190.726562 C 469.160156 191.050781 469.011719 191.363281 468.832031 191.65625 C 468.65625 191.953125 468.449219 192.226562 468.214844 192.484375 C 467.980469 192.738281 467.726562 192.96875 467.445312 193.171875 C 467.167969 193.375 466.871094 193.550781 466.558594 193.699219 C 466.246094 193.84375 465.921875 193.957031 465.585938 194.039062 C 465.25 194.121094 464.910156 194.171875 464.5625 194.183594 C 403.113281 196.800781 342.410156 204.976562 282.457031 218.707031 C 279.988281 219.269531 278.09375 219.699219 276.800781 219.96875 C 275.824219 220.21875 274.832031 220.367188 273.824219 220.417969 Z M 273.824219 220.417969 " fill-opacity="1" fill-rule="nonzero"/><g mask="url(#d9828b6d53)"><g transform="matrix(1, 0, 0, 1, 177, 256)"><g clip-path="url(#f00d6c4f02)"><g clip-path="url(#e19df79b58)"><g clip-path="url(#5f51212f38)"><path fill="#000000" d="M 0.839844 0.371094 L 0.839844 404.863281 L 438.429688 404.863281 L 438.429688 0.371094 Z M 0.839844 0.371094 " fill-opacity="1" fill-rule="nonzero"/></g></g></g></g></g><path stroke-linecap="butt" transform="matrix(0.75, 0, 0, 0.75, 275.39999, 543.155153)" fill="none" stroke-linejoin="miter" d="M -0.00206953 2.001463 L 345.602115 2.001463 " stroke="#d9d9d9" stroke-width="4" stroke-opacity="1" stroke-miterlimit="4"/></svg>