<svg xmlns="http://www.w3.org/2000/svg" xmlns:xlink="http://www.w3.org/1999/xlink" width="500" zoomAndPan="magnify" viewBox="0 0 375 374.999991" height="500" preserveAspectRatio="xMidYMid meet" version="1.0"><defs><clipPath id="44617e0639"><path d="M 287 140 L 337.367188 140 L 337.367188 165 L 287 165 Z M 287 140 " clip-rule="nonzero"/></clipPath><clipPath id="f452f9b875"><path d="M 37.625 95 L 88 95 L 88 128 L 37.625 128 Z M 37.625 95 " clip-rule="nonzero"/></clipPath><clipPath id="db5731e5e4"><path d="M 37.625 116 L 88 116 L 88 329 L 37.625 329 Z M 37.625 116 " clip-rule="nonzero"/></clipPath><clipPath id="27a1059332"><path d="M 287 157 L 337.367188 157 L 337.367188 329 L 287 329 Z M 287 157 " clip-rule="nonzero"/></clipPath><clipPath id="d1e934aec3"><path d="M 0 339.992188 L 375 339.992188 L 375 375 L 0 375 Z M 0 339.992188 " clip-rule="nonzero"/></clipPath></defs><rect x="-37.5" width="450" fill="#ffffff" y="-37.499999" height="449.999989" fill-opacity="1"/><rect x="-37.5" width="450" fill="#ffffff" y="-37.499999" height="449.999989" fill-opacity="1"/><path fill="#a6a6a6" d="M 276.796875 140.148438 L 276.796875 145.308594 L 252.289062 154.648438 L 252.289062 149.5 Z M 276.796875 140.148438 " fill-opacity="1" fill-rule="nonzero"/><g clip-path="url(#44617e0639)"><path fill="#a6a6a6" d="M 337.394531 159.019531 L 337.394531 164.167969 L 287.898438 145.308594 L 287.898438 140.148438 Z M 337.394531 159.019531 " fill-opacity="1" fill-rule="nonzero"/></g><path fill="#a6a6a6" d="M 241.1875 32.421875 L 241.1875 48.183594 L 191.6875 16.074219 L 191.6875 0.296875 Z M 241.1875 32.421875 " fill-opacity="1" fill-rule="nonzero"/><path fill="#a6a6a6" d="M 180.585938 0.296875 L 180.585938 16.074219 L 131.085938 48.183594 L 131.085938 32.421875 Z M 180.585938 0.296875 " fill-opacity="1" fill-rule="nonzero"/><path fill="#a6a6a6" d="M 119.984375 105.636719 L 119.984375 114.238281 L 98.210938 104.082031 L 98.210938 95.476562 Z M 119.984375 105.636719 " fill-opacity="1" fill-rule="nonzero"/><g clip-path="url(#f452f9b875)"><path fill="#a6a6a6" d="M 87.109375 95.476562 L 87.109375 104.082031 L 37.625 127.171875 L 37.625 118.570312 Z M 87.109375 95.476562 " fill-opacity="1" fill-rule="nonzero"/></g><g clip-path="url(#db5731e5e4)"><path fill="#a6a6a6" d="M 37.625 139.425781 L 37.625 328.679688 L 87.109375 328.679688 L 87.109375 116.363281 Z M 59.164062 216.054688 L 48.0625 216.054688 L 48.0625 204.953125 L 59.164062 204.953125 Z M 79.976562 154.675781 L 68.875 154.675781 L 68.875 143.574219 L 79.976562 143.574219 Z M 79.976562 154.675781 " fill-opacity="1" fill-rule="nonzero"/></g><path fill="#a6a6a6" d="M 119.984375 126.492188 L 119.984375 328.679688 L 98.210938 328.679688 L 98.210938 116.335938 Z M 119.984375 126.492188 " fill-opacity="1" fill-rule="nonzero"/><path fill="#a6a6a6" d="M 131.085938 61.425781 L 131.085938 328.679688 L 180.558594 328.679688 L 180.558594 29.3125 Z M 150.515625 81.671875 L 139.414062 81.671875 L 139.414062 70.570312 L 150.515625 70.570312 Z M 169.457031 230.152344 L 158.355469 230.152344 L 158.355469 219.050781 L 169.457031 219.050781 Z M 169.457031 162.15625 L 158.355469 162.15625 L 158.355469 151.054688 L 169.457031 151.054688 Z M 169.457031 162.15625 " fill-opacity="1" fill-rule="nonzero"/><path fill="#a6a6a6" d="M 191.660156 29.3125 L 191.660156 328.679688 L 241.160156 328.679688 L 241.160156 61.425781 Z M 215.25 198.238281 L 204.148438 198.238281 L 204.148438 187.136719 L 215.25 187.136719 Z M 215.25 85.832031 L 204.148438 85.832031 L 204.148438 74.730469 L 215.25 74.730469 Z M 232.390625 130.738281 L 221.289062 130.738281 L 221.289062 119.636719 L 232.390625 119.636719 Z M 232.390625 130.738281 " fill-opacity="1" fill-rule="nonzero"/><g clip-path="url(#27a1059332)"><path fill="#a6a6a6" d="M 287.898438 157.1875 L 287.898438 328.679688 L 337.367188 328.679688 L 337.367188 176.035156 Z M 310.335938 198.238281 L 299.234375 198.238281 L 299.234375 187.136719 L 310.335938 187.136719 Z M 327.683594 230.152344 L 316.582031 230.152344 L 316.582031 219.050781 L 327.683594 219.050781 Z M 327.683594 230.152344 " fill-opacity="1" fill-rule="nonzero"/></g><path fill="#a6a6a6" d="M 276.796875 157.1875 L 276.796875 328.679688 L 252.289062 328.679688 L 252.289062 166.527344 Z M 276.796875 157.1875 " fill-opacity="1" fill-rule="nonzero"/><g clip-path="url(#d1e934aec3)"><path fill="#a6a6a6" d="M -37.308594 339.992188 L 412.382812 339.992188 L 412.382812 379.910156 L -37.308594 379.910156 Z M -37.308594 339.992188 " fill-opacity="1" fill-rule="nonzero"/></g></svg>