<svg xmlns="http://www.w3.org/2000/svg" xmlns:xlink="http://www.w3.org/1999/xlink" width="500" zoomAndPan="magnify" viewBox="0 0 375 374.999991" height="500" preserveAspectRatio="xMidYMid meet" version="1.0"><defs><g/><clipPath id="a32454f0d0"><path d="M 0.28125 44 L 325.253906 44 L 325.253906 372.292969 L 0.28125 372.292969 Z M 0.28125 44 " clip-rule="nonzero"/></clipPath><clipPath id="9330985fbd"><path d="M 49.265625 44 L 374.730469 44 L 374.730469 372.292969 L 49.265625 372.292969 Z M 49.265625 44 " clip-rule="nonzero"/></clipPath><clipPath id="3c18476f5f"><path d="M 0.28125 5.59375 L 374.730469 5.59375 L 374.730469 245 L 0.28125 245 Z M 0.28125 5.59375 " clip-rule="nonzero"/></clipPath></defs><g fill="#ffffff" fill-opacity="1"><g transform="translate(66.736464, 264.912996)"><g><path d="M 2.234375 -1 L 7.40625 -1 L 7.40625 0 L 1.015625 0 L 1.015625 -9.859375 L 2.234375 -9.859375 Z M 2.234375 -1 "/></g></g></g><g fill="#ffffff" fill-opacity="1"><g transform="translate(74.917405, 264.912996)"><g><path d="M 4.4375 -0.671875 C 5.164062 -0.671875 5.707031 -0.820312 6.0625 -1.125 C 6.425781 -1.4375 6.664062 -1.820312 6.78125 -2.28125 L 7.859375 -2.28125 C 7.804688 -1.90625 7.664062 -1.519531 7.4375 -1.125 C 7.207031 -0.738281 6.847656 -0.414062 6.359375 -0.15625 C 5.867188 0.101562 5.210938 0.234375 4.390625 0.234375 C 3.535156 0.234375 2.835938 0.0625 2.296875 -0.28125 C 1.753906 -0.632812 1.351562 -1.109375 1.09375 -1.703125 C 0.84375 -2.304688 0.71875 -2.976562 0.71875 -3.71875 C 0.71875 -4.457031 0.851562 -5.125 1.125 -5.71875 C 1.394531 -6.3125 1.800781 -6.78125 2.34375 -7.125 C 2.882812 -7.476562 3.566406 -7.65625 4.390625 -7.65625 C 5.128906 -7.65625 5.757812 -7.492188 6.28125 -7.171875 C 6.800781 -6.859375 7.195312 -6.425781 7.46875 -5.875 C 7.738281 -5.320312 7.875 -4.679688 7.875 -3.953125 C 7.875 -3.859375 7.875 -3.769531 7.875 -3.6875 C 7.875 -3.613281 7.863281 -3.53125 7.84375 -3.4375 L 1.890625 -3.4375 C 1.929688 -2.414062 2.179688 -1.695312 2.640625 -1.28125 C 3.097656 -0.875 3.695312 -0.671875 4.4375 -0.671875 Z M 4.40625 -6.75 C 3.695312 -6.75 3.125 -6.566406 2.6875 -6.203125 C 2.25 -5.835938 1.988281 -5.210938 1.90625 -4.328125 L 6.71875 -4.328125 C 6.6875 -5.179688 6.460938 -5.796875 6.046875 -6.171875 C 5.640625 -6.554688 5.09375 -6.75 4.40625 -6.75 Z M 4.40625 -6.75 "/></g></g></g><g fill="#ffffff" fill-opacity="1"><g transform="translate(83.913424, 264.912996)"><g><path d="M 3.5 0 C 2.789062 0 2.3125 -0.140625 2.0625 -0.421875 C 1.820312 -0.703125 1.703125 -1.140625 1.703125 -1.734375 L 1.703125 -6.484375 L 0.296875 -6.484375 L 0.296875 -7.140625 L 1.8125 -7.515625 L 2.25 -9.0625 L 2.890625 -9.0625 L 2.890625 -7.421875 L 5.34375 -7.421875 L 5.34375 -6.484375 L 2.890625 -6.484375 L 2.890625 -0.96875 L 5.25 -0.96875 L 5.25 0 Z M 3.5 0 "/></g></g></g><g fill="#ffffff" fill-opacity="1"><g transform="translate(90.167835, 264.912996)"><g/></g></g><g fill="#ffffff" fill-opacity="1"><g transform="translate(93.962205, 264.912996)"><g><path d="M 6.703125 -7.421875 L 7.875 -7.421875 L 4.390625 1.234375 C 4.242188 1.628906 4.09375 1.953125 3.9375 2.203125 C 3.78125 2.460938 3.578125 2.65625 3.328125 2.78125 C 3.085938 2.90625 2.742188 2.96875 2.296875 2.96875 L 0.890625 2.96875 L 0.890625 2 L 2.953125 2 L 3.765625 0 L 3.34375 0 L 0.421875 -7.421875 L 1.65625 -7.421875 L 3.921875 -1.703125 L 4.1875 -1 L 4.40625 -1.703125 Z M 6.703125 -7.421875 "/></g></g></g><g fill="#ffffff" fill-opacity="1"><g transform="translate(102.661839, 264.912996)"><g><path d="M 4.453125 0.234375 C 3.617188 0.234375 2.925781 0.0625 2.375 -0.28125 C 1.820312 -0.632812 1.40625 -1.109375 1.125 -1.703125 C 0.851562 -2.304688 0.71875 -2.976562 0.71875 -3.71875 C 0.71875 -4.457031 0.851562 -5.125 1.125 -5.71875 C 1.40625 -6.3125 1.820312 -6.78125 2.375 -7.125 C 2.925781 -7.476562 3.617188 -7.65625 4.453125 -7.65625 C 5.273438 -7.65625 5.960938 -7.476562 6.515625 -7.125 C 7.066406 -6.769531 7.476562 -6.296875 7.75 -5.703125 C 8.03125 -5.109375 8.171875 -4.445312 8.171875 -3.71875 C 8.171875 -2.976562 8.03125 -2.304688 7.75 -1.703125 C 7.476562 -1.109375 7.066406 -0.632812 6.515625 -0.28125 C 5.960938 0.0625 5.273438 0.234375 4.453125 0.234375 Z M 1.90625 -3.703125 C 1.90625 -2.671875 2.117188 -1.914062 2.546875 -1.4375 C 2.972656 -0.96875 3.609375 -0.734375 4.453125 -0.734375 C 5.285156 -0.734375 5.910156 -0.96875 6.328125 -1.4375 C 6.753906 -1.914062 6.96875 -2.671875 6.96875 -3.703125 C 6.96875 -4.753906 6.753906 -5.515625 6.328125 -5.984375 C 5.910156 -6.453125 5.285156 -6.6875 4.453125 -6.6875 C 3.609375 -6.6875 2.972656 -6.453125 2.546875 -5.984375 C 2.117188 -5.515625 1.90625 -4.753906 1.90625 -3.703125 Z M 1.90625 -3.703125 "/></g></g></g><g fill="#ffffff" fill-opacity="1"><g transform="translate(111.998706, 264.912996)"><g><path d="M 6.40625 -7.421875 L 7.59375 -7.421875 L 7.59375 0 L 6.40625 0 L 6.40625 -1.890625 C 6.1875 -1.222656 5.851562 -0.703125 5.40625 -0.328125 C 4.957031 0.046875 4.367188 0.234375 3.640625 0.234375 C 2.710938 0.234375 2.03125 -0.0078125 1.59375 -0.5 C 1.15625 -0.988281 0.9375 -1.71875 0.9375 -2.6875 L 0.9375 -7.421875 L 2.125 -7.421875 L 2.125 -2.8125 C 2.125 -2.269531 2.195312 -1.847656 2.34375 -1.546875 C 2.5 -1.242188 2.71875 -1.03125 3 -0.90625 C 3.28125 -0.789062 3.609375 -0.734375 3.984375 -0.734375 C 4.753906 -0.734375 5.347656 -1.066406 5.765625 -1.734375 C 6.191406 -2.410156 6.40625 -3.359375 6.40625 -4.578125 Z M 6.40625 -7.421875 "/></g></g></g><g fill="#ffffff" fill-opacity="1"><g transform="translate(121.128097, 264.912996)"><g><path d="M 4.984375 -7.515625 L 5.25 -7.515625 L 5.25 -6.34375 L 4.9375 -6.34375 C 4.207031 -6.375 3.648438 -6.226562 3.265625 -5.90625 C 2.878906 -5.59375 2.613281 -5.160156 2.46875 -4.609375 C 2.332031 -4.054688 2.265625 -3.429688 2.265625 -2.734375 L 2.265625 0 L 1.078125 0 L 1.078125 -7.421875 L 2.265625 -7.421875 L 2.265625 -5.453125 C 2.492188 -6.066406 2.828125 -6.5625 3.265625 -6.9375 C 3.703125 -7.320312 4.273438 -7.515625 4.984375 -7.515625 Z M 4.984375 -7.515625 "/></g></g></g><g fill="#ffffff" fill-opacity="1"><g transform="translate(127.293583, 264.912996)"><g/></g></g><g fill="#ffffff" fill-opacity="1"><g transform="translate(131.087951, 264.912996)"><g><path d="M 0.71875 -3.703125 C 0.71875 -4.460938 0.859375 -5.140625 1.140625 -5.734375 C 1.421875 -6.328125 1.835938 -6.796875 2.390625 -7.140625 C 2.941406 -7.484375 3.617188 -7.65625 4.421875 -7.65625 C 5.535156 -7.65625 6.375 -7.375 6.9375 -6.8125 C 7.5 -6.257812 7.8125 -5.554688 7.875 -4.703125 L 6.765625 -4.703125 C 6.671875 -5.316406 6.4375 -5.800781 6.0625 -6.15625 C 5.6875 -6.507812 5.15625 -6.6875 4.46875 -6.6875 C 3.6875 -6.6875 3.0625 -6.457031 2.59375 -6 C 2.132812 -5.539062 1.90625 -4.773438 1.90625 -3.703125 C 1.90625 -2.628906 2.128906 -1.863281 2.578125 -1.40625 C 3.023438 -0.957031 3.640625 -0.734375 4.421875 -0.734375 C 5.171875 -0.734375 5.742188 -0.925781 6.140625 -1.3125 C 6.535156 -1.695312 6.765625 -2.203125 6.828125 -2.828125 L 7.96875 -2.828125 C 7.9375 -2.265625 7.78125 -1.75 7.5 -1.28125 C 7.226562 -0.820312 6.832031 -0.453125 6.3125 -0.171875 C 5.800781 0.0976562 5.171875 0.234375 4.421875 0.234375 C 3.609375 0.234375 2.925781 0.0664062 2.375 -0.265625 C 1.832031 -0.609375 1.421875 -1.078125 1.140625 -1.671875 C 0.859375 -2.273438 0.71875 -2.953125 0.71875 -3.703125 Z M 0.71875 -3.703125 "/></g></g></g><g fill="#ffffff" fill-opacity="1"><g transform="translate(140.128429, 264.912996)"><g><path d="M 4.984375 -7.515625 L 5.25 -7.515625 L 5.25 -6.34375 L 4.9375 -6.34375 C 4.207031 -6.375 3.648438 -6.226562 3.265625 -5.90625 C 2.878906 -5.59375 2.613281 -5.160156 2.46875 -4.609375 C 2.332031 -4.054688 2.265625 -3.429688 2.265625 -2.734375 L 2.265625 0 L 1.078125 0 L 1.078125 -7.421875 L 2.265625 -7.421875 L 2.265625 -5.453125 C 2.492188 -6.066406 2.828125 -6.5625 3.265625 -6.9375 C 3.703125 -7.320312 4.273438 -7.515625 4.984375 -7.515625 Z M 4.984375 -7.515625 "/></g></g></g><g fill="#ffffff" fill-opacity="1"><g transform="translate(146.293914, 264.912996)"><g><path d="M 4.4375 -0.671875 C 5.164062 -0.671875 5.707031 -0.820312 6.0625 -1.125 C 6.425781 -1.4375 6.664062 -1.820312 6.78125 -2.28125 L 7.859375 -2.28125 C 7.804688 -1.90625 7.664062 -1.519531 7.4375 -1.125 C 7.207031 -0.738281 6.847656 -0.414062 6.359375 -0.15625 C 5.867188 0.101562 5.210938 0.234375 4.390625 0.234375 C 3.535156 0.234375 2.835938 0.0625 2.296875 -0.28125 C 1.753906 -0.632812 1.351562 -1.109375 1.09375 -1.703125 C 0.84375 -2.304688 0.71875 -2.976562 0.71875 -3.71875 C 0.71875 -4.457031 0.851562 -5.125 1.125 -5.71875 C 1.394531 -6.3125 1.800781 -6.78125 2.34375 -7.125 C 2.882812 -7.476562 3.566406 -7.65625 4.390625 -7.65625 C 5.128906 -7.65625 5.757812 -7.492188 6.28125 -7.171875 C 6.800781 -6.859375 7.195312 -6.425781 7.46875 -5.875 C 7.738281 -5.320312 7.875 -4.679688 7.875 -3.953125 C 7.875 -3.859375 7.875 -3.769531 7.875 -3.6875 C 7.875 -3.613281 7.863281 -3.53125 7.84375 -3.4375 L 1.890625 -3.4375 C 1.929688 -2.414062 2.179688 -1.695312 2.640625 -1.28125 C 3.097656 -0.875 3.695312 -0.671875 4.4375 -0.671875 Z M 4.40625 -6.75 C 3.695312 -6.75 3.125 -6.566406 2.6875 -6.203125 C 2.25 -5.835938 1.988281 -5.210938 1.90625 -4.328125 L 6.71875 -4.328125 C 6.6875 -5.179688 6.460938 -5.796875 6.046875 -6.171875 C 5.640625 -6.554688 5.09375 -6.75 4.40625 -6.75 Z M 4.40625 -6.75 "/></g></g></g><g fill="#ffffff" fill-opacity="1"><g transform="translate(155.289932, 264.912996)"><g><path d="M 3.3125 0.1875 C 2.59375 0.1875 2.003906 0.00390625 1.546875 -0.359375 C 1.085938 -0.722656 0.859375 -1.253906 0.859375 -1.953125 C 0.859375 -2.554688 1.03125 -3.046875 1.375 -3.421875 C 1.726562 -3.796875 2.304688 -4.050781 3.109375 -4.1875 L 5 -4.5 C 5.394531 -4.5625 5.675781 -4.65625 5.84375 -4.78125 C 6.019531 -4.914062 6.109375 -5.117188 6.109375 -5.390625 C 6.109375 -5.773438 5.984375 -6.09375 5.734375 -6.34375 C 5.492188 -6.601562 5.007812 -6.734375 4.28125 -6.734375 C 3.5625 -6.734375 3.046875 -6.578125 2.734375 -6.265625 C 2.421875 -5.960938 2.242188 -5.570312 2.203125 -5.09375 L 1.03125 -5.09375 C 1.050781 -5.875 1.335938 -6.5 1.890625 -6.96875 C 2.441406 -7.4375 3.222656 -7.671875 4.234375 -7.671875 C 5.253906 -7.671875 6 -7.457031 6.46875 -7.03125 C 6.945312 -6.613281 7.1875 -6.066406 7.1875 -5.390625 L 7.1875 -1.84375 C 7.1875 -1.570312 7.191406 -1.285156 7.203125 -0.984375 C 7.210938 -0.691406 7.238281 -0.363281 7.28125 0 L 6.203125 0 C 6.171875 -0.3125 6.144531 -0.609375 6.125 -0.890625 C 6.101562 -1.171875 6.09375 -1.453125 6.09375 -1.734375 C 6.007812 -1.441406 5.851562 -1.144531 5.625 -0.84375 C 5.40625 -0.550781 5.109375 -0.304688 4.734375 -0.109375 C 4.359375 0.0859375 3.882812 0.1875 3.3125 0.1875 Z M 3.546875 -0.734375 C 4.128906 -0.734375 4.609375 -0.867188 4.984375 -1.140625 C 5.367188 -1.410156 5.648438 -1.753906 5.828125 -2.171875 C 6.015625 -2.597656 6.109375 -3.046875 6.109375 -3.515625 L 6.109375 -4.15625 C 5.921875 -4.019531 5.722656 -3.914062 5.515625 -3.84375 C 5.304688 -3.769531 5.0625 -3.703125 4.78125 -3.640625 L 3.546875 -3.390625 C 3.035156 -3.296875 2.660156 -3.140625 2.421875 -2.921875 C 2.179688 -2.710938 2.0625 -2.40625 2.0625 -2 C 2.0625 -1.570312 2.195312 -1.253906 2.46875 -1.046875 C 2.75 -0.835938 3.109375 -0.734375 3.546875 -0.734375 Z M 3.546875 -0.734375 "/></g></g></g><g fill="#ffffff" fill-opacity="1"><g transform="translate(163.871007, 264.912996)"><g><path d="M 3.5 0 C 2.789062 0 2.3125 -0.140625 2.0625 -0.421875 C 1.820312 -0.703125 1.703125 -1.140625 1.703125 -1.734375 L 1.703125 -6.484375 L 0.296875 -6.484375 L 0.296875 -7.140625 L 1.8125 -7.515625 L 2.25 -9.0625 L 2.890625 -9.0625 L 2.890625 -7.421875 L 5.34375 -7.421875 L 5.34375 -6.484375 L 2.890625 -6.484375 L 2.890625 -0.96875 L 5.25 -0.96875 L 5.25 0 Z M 3.5 0 "/></g></g></g><g fill="#ffffff" fill-opacity="1"><g transform="translate(170.125421, 264.912996)"><g><path d="M 0.921875 -8.625 L 0.921875 -9.859375 L 2.453125 -9.859375 L 2.453125 -8.625 Z M 1.078125 0 L 1.078125 -7.421875 L 2.265625 -7.421875 L 2.265625 0 Z M 1.078125 0 "/></g></g></g><g fill="#ffffff" fill-opacity="1"><g transform="translate(173.949428, 264.912996)"><g><path d="M 6.609375 -7.421875 L 7.78125 -7.421875 L 4.859375 0 L 3.296875 0 L 0.375 -7.421875 L 1.609375 -7.421875 L 4.109375 -1.03125 Z M 6.609375 -7.421875 "/></g></g></g><g fill="#ffffff" fill-opacity="1"><g transform="translate(182.545326, 264.912996)"><g><path d="M 0.921875 -8.625 L 0.921875 -9.859375 L 2.453125 -9.859375 L 2.453125 -8.625 Z M 1.078125 0 L 1.078125 -7.421875 L 2.265625 -7.421875 L 2.265625 0 Z M 1.078125 0 "/></g></g></g><g fill="#ffffff" fill-opacity="1"><g transform="translate(186.369334, 264.912996)"><g><path d="M 3.5 0 C 2.789062 0 2.3125 -0.140625 2.0625 -0.421875 C 1.820312 -0.703125 1.703125 -1.140625 1.703125 -1.734375 L 1.703125 -6.484375 L 0.296875 -6.484375 L 0.296875 -7.140625 L 1.8125 -7.515625 L 2.25 -9.0625 L 2.890625 -9.0625 L 2.890625 -7.421875 L 5.34375 -7.421875 L 5.34375 -6.484375 L 2.890625 -6.484375 L 2.890625 -0.96875 L 5.25 -0.96875 L 5.25 0 Z M 3.5 0 "/></g></g></g><g fill="#ffffff" fill-opacity="1"><g transform="translate(192.623747, 264.912996)"><g><path d="M 6.703125 -7.421875 L 7.875 -7.421875 L 4.390625 1.234375 C 4.242188 1.628906 4.09375 1.953125 3.9375 2.203125 C 3.78125 2.460938 3.578125 2.65625 3.328125 2.78125 C 3.085938 2.90625 2.742188 2.96875 2.296875 2.96875 L 0.890625 2.96875 L 0.890625 2 L 2.953125 2 L 3.765625 0 L 3.34375 0 L 0.421875 -7.421875 L 1.65625 -7.421875 L 3.921875 -1.703125 L 4.1875 -1 L 4.40625 -1.703125 Z M 6.703125 -7.421875 "/></g></g></g><g fill="#ffffff" fill-opacity="1"><g transform="translate(201.323384, 264.912996)"><g/></g></g><g fill="#ffffff" fill-opacity="1"><g transform="translate(205.117758, 264.912996)"><g><path d="M 0.5625 -2.46875 L 1.65625 -2.46875 C 1.6875 -2.132812 1.78125 -1.832031 1.9375 -1.5625 C 2.09375 -1.289062 2.335938 -1.070312 2.671875 -0.90625 C 3.003906 -0.75 3.453125 -0.671875 4.015625 -0.671875 C 4.671875 -0.671875 5.140625 -0.78125 5.421875 -1 C 5.703125 -1.21875 5.84375 -1.535156 5.84375 -1.953125 C 5.84375 -2.304688 5.734375 -2.582031 5.515625 -2.78125 C 5.296875 -2.976562 4.957031 -3.113281 4.5 -3.1875 L 2.765625 -3.4375 C 2.128906 -3.53125 1.632812 -3.742188 1.28125 -4.078125 C 0.925781 -4.410156 0.75 -4.863281 0.75 -5.4375 C 0.75 -6.132812 1.007812 -6.679688 1.53125 -7.078125 C 2.0625 -7.472656 2.789062 -7.671875 3.71875 -7.671875 C 4.6875 -7.671875 5.441406 -7.445312 5.984375 -7 C 6.535156 -6.5625 6.828125 -5.992188 6.859375 -5.296875 L 5.6875 -5.296875 C 5.65625 -5.679688 5.484375 -6.019531 5.171875 -6.3125 C 4.867188 -6.613281 4.375 -6.765625 3.6875 -6.765625 C 3.0625 -6.765625 2.609375 -6.648438 2.328125 -6.421875 C 2.046875 -6.191406 1.90625 -5.894531 1.90625 -5.53125 C 1.90625 -5.269531 1.988281 -5.035156 2.15625 -4.828125 C 2.332031 -4.628906 2.648438 -4.5 3.109375 -4.4375 L 4.6875 -4.21875 C 5.539062 -4.082031 6.140625 -3.832031 6.484375 -3.46875 C 6.835938 -3.113281 7.015625 -2.628906 7.015625 -2.015625 C 7.015625 -1.265625 6.753906 -0.703125 6.234375 -0.328125 C 5.722656 0.046875 4.972656 0.234375 3.984375 0.234375 C 3.179688 0.234375 2.53125 0.117188 2.03125 -0.109375 C 1.53125 -0.347656 1.160156 -0.671875 0.921875 -1.078125 C 0.691406 -1.492188 0.570312 -1.957031 0.5625 -2.46875 Z M 0.5625 -2.46875 "/></g></g></g><g fill="#ffffff" fill-opacity="1"><g transform="translate(213.22461, 264.912996)"><g><path d="M 5.109375 -7.65625 C 6.046875 -7.65625 6.71875 -7.40625 7.125 -6.90625 C 7.539062 -6.414062 7.75 -5.691406 7.75 -4.734375 L 7.75 0 L 6.5625 0 L 6.5625 -4.59375 C 6.5625 -5.382812 6.398438 -5.925781 6.078125 -6.21875 C 5.765625 -6.507812 5.335938 -6.65625 4.796875 -6.65625 C 3.972656 -6.65625 3.34375 -6.335938 2.90625 -5.703125 C 2.476562 -5.066406 2.265625 -4.109375 2.265625 -2.828125 L 2.265625 0 L 1.078125 0 L 1.078125 -10.375 L 2.265625 -10.375 L 2.265625 -5.46875 C 2.492188 -6.144531 2.84375 -6.675781 3.3125 -7.0625 C 3.78125 -7.457031 4.378906 -7.65625 5.109375 -7.65625 Z M 5.109375 -7.65625 "/></g></g></g><g fill="#ffffff" fill-opacity="1"><g transform="translate(222.368832, 264.912996)"><g><path d="M 0.921875 -8.625 L 0.921875 -9.859375 L 2.453125 -9.859375 L 2.453125 -8.625 Z M 1.078125 0 L 1.078125 -7.421875 L 2.265625 -7.421875 L 2.265625 0 Z M 1.078125 0 "/></g></g></g><g fill="#ffffff" fill-opacity="1"><g transform="translate(226.192839, 264.912996)"><g><path d="M 5.109375 -7.65625 C 6.046875 -7.65625 6.71875 -7.40625 7.125 -6.90625 C 7.539062 -6.414062 7.75 -5.691406 7.75 -4.734375 L 7.75 0 L 6.5625 0 L 6.5625 -4.59375 C 6.5625 -5.382812 6.398438 -5.925781 6.078125 -6.21875 C 5.765625 -6.507812 5.335938 -6.65625 4.796875 -6.65625 C 3.972656 -6.65625 3.34375 -6.335938 2.90625 -5.703125 C 2.476562 -5.066406 2.265625 -4.109375 2.265625 -2.828125 L 2.265625 0 L 1.078125 0 L 1.078125 -7.421875 L 2.265625 -7.421875 L 2.265625 -5.46875 C 2.492188 -6.144531 2.84375 -6.675781 3.3125 -7.0625 C 3.78125 -7.457031 4.378906 -7.65625 5.109375 -7.65625 Z M 5.109375 -7.65625 "/></g></g></g><g fill="#ffffff" fill-opacity="1"><g transform="translate(235.337062, 264.912996)"><g><path d="M 4.4375 -0.671875 C 5.164062 -0.671875 5.707031 -0.820312 6.0625 -1.125 C 6.425781 -1.4375 6.664062 -1.820312 6.78125 -2.28125 L 7.859375 -2.28125 C 7.804688 -1.90625 7.664062 -1.519531 7.4375 -1.125 C 7.207031 -0.738281 6.847656 -0.414062 6.359375 -0.15625 C 5.867188 0.101562 5.210938 0.234375 4.390625 0.234375 C 3.535156 0.234375 2.835938 0.0625 2.296875 -0.28125 C 1.753906 -0.632812 1.351562 -1.109375 1.09375 -1.703125 C 0.84375 -2.304688 0.71875 -2.976562 0.71875 -3.71875 C 0.71875 -4.457031 0.851562 -5.125 1.125 -5.71875 C 1.394531 -6.3125 1.800781 -6.78125 2.34375 -7.125 C 2.882812 -7.476562 3.566406 -7.65625 4.390625 -7.65625 C 5.128906 -7.65625 5.757812 -7.492188 6.28125 -7.171875 C 6.800781 -6.859375 7.195312 -6.425781 7.46875 -5.875 C 7.738281 -5.320312 7.875 -4.679688 7.875 -3.953125 C 7.875 -3.859375 7.875 -3.769531 7.875 -3.6875 C 7.875 -3.613281 7.863281 -3.53125 7.84375 -3.4375 L 1.890625 -3.4375 C 1.929688 -2.414062 2.179688 -1.695312 2.640625 -1.28125 C 3.097656 -0.875 3.695312 -0.671875 4.4375 -0.671875 Z M 4.40625 -6.75 C 3.695312 -6.75 3.125 -6.566406 2.6875 -6.203125 C 2.25 -5.835938 1.988281 -5.210938 1.90625 -4.328125 L 6.71875 -4.328125 C 6.6875 -5.179688 6.460938 -5.796875 6.046875 -6.171875 C 5.640625 -6.554688 5.09375 -6.75 4.40625 -6.75 Z M 4.40625 -6.75 "/></g></g></g><g clip-path="url(#a32454f0d0)"><path fill="#ffffff" d="M 126.570312 174.796875 C 126.453125 174.796875 126.332031 174.796875 126.332031 174.796875 L 20.121094 173.242188 C 9.007812 173.121094 0.046875 163.921875 0.285156 152.8125 C 0.40625 141.820312 9.484375 132.980469 20.476562 132.980469 C 20.597656 132.980469 20.71875 132.980469 20.71875 132.980469 L 126.929688 134.535156 C 138.042969 134.652344 147.003906 143.851562 146.765625 154.964844 C 146.644531 165.953125 137.5625 174.796875 126.570312 174.796875 Z M 238.042969 372.292969 C 230.875 372.292969 223.945312 368.464844 220.242188 361.777344 L 169.582031 268.464844 C 164.328125 258.667969 167.910156 246.484375 177.707031 241.105469 C 187.503906 235.847656 199.6875 239.429688 205.066406 249.230469 L 255.726562 342.539062 C 260.980469 352.335938 257.398438 364.527344 247.601562 369.902344 C 244.613281 371.453125 241.269531 372.292969 238.042969 372.292969 Z M 248.078125 134.535156 L 285.355469 133.9375 L 322.152344 75.632812 C 328.007812 66.191406 325.261719 53.769531 315.824219 47.792969 C 306.382812 41.941406 293.957031 44.6875 287.984375 54.128906 L 233.5 140.625 C 233.265625 141.105469 233.027344 141.582031 232.789062 141.941406 C 236.371094 137.523438 241.867188 134.652344 248.078125 134.535156 " fill-opacity="1" fill-rule="nonzero"/></g><g clip-path="url(#9330985fbd)"><path fill="#a6a6a6" d="M 248.4375 174.796875 C 237.445312 174.796875 228.484375 165.953125 228.246094 154.964844 C 228.125 143.851562 236.96875 134.652344 248.078125 134.535156 L 354.171875 132.980469 C 365.523438 132.859375 374.484375 141.703125 374.605469 152.8125 C 374.722656 163.921875 365.882812 173.121094 354.769531 173.242188 L 248.675781 174.796875 C 248.558594 174.796875 248.558594 174.796875 248.4375 174.796875 Z M 89.535156 133.9375 L 126.929688 134.535156 C 133.027344 134.652344 138.402344 137.402344 141.984375 141.703125 C 141.863281 141.34375 141.625 141.105469 141.503906 140.746094 L 87.027344 54.242188 C 81.054688 44.808594 68.625 41.941406 59.1875 47.914062 C 49.746094 53.890625 46.882812 66.3125 52.855469 75.75 Z M 169.582031 268.464844 C 166.832031 263.210938 166.480469 257.351562 168.269531 252.21875 C 168.148438 252.335938 168.027344 252.574219 168.027344 252.695312 L 119.285156 342.539062 C 114.027344 352.335938 117.609375 364.644531 127.40625 369.902344 C 130.394531 371.453125 133.738281 372.292969 136.964844 372.292969 C 144.132812 372.292969 151.0625 368.464844 154.769531 361.777344 L 187.503906 301.441406 L 169.582031 268.464844 " fill-opacity="1" fill-rule="nonzero"/></g><g clip-path="url(#3c18476f5f)"><path fill="#a6a6a6" d="M 187.386719 139.191406 C 184.15625 139.191406 180.816406 138.359375 177.828125 136.804688 C 168.027344 131.546875 164.445312 119.242188 169.703125 109.445312 L 220.359375 16.132812 C 225.621094 6.335938 237.921875 2.753906 247.722656 8.007812 C 257.519531 13.265625 261.101562 25.570312 255.84375 35.371094 L 205.1875 128.679688 C 201.480469 135.371094 194.554688 139.191406 187.386719 139.191406 Z M 109.367188 212.195312 C 112.59375 207.171875 117.492188 204.070312 122.871094 203.113281 C 122.75 203.113281 122.628906 203.113281 122.628906 203.113281 C 122.628906 203.113281 122.511719 203.113281 122.390625 203.113281 L 20.121094 204.546875 C 9.007812 204.667969 0.167969 213.867188 0.285156 224.976562 C 0.523438 235.96875 9.484375 244.808594 20.476562 244.808594 C 20.476562 244.808594 20.597656 244.808594 20.71875 244.808594 L 89.417969 243.855469 Z M 354.890625 204.546875 L 252.617188 203.113281 C 252.617188 203.113281 252.5 203.113281 252.378906 203.113281 C 252.378906 203.113281 252.378906 203.113281 252.257812 203.113281 C 257.519531 204.070312 262.535156 207.292969 265.644531 212.195312 L 285.59375 243.855469 L 354.292969 244.808594 C 354.292969 244.808594 354.410156 244.808594 354.53125 244.808594 C 365.523438 244.808594 374.605469 235.96875 374.722656 224.976562 C 374.964844 213.867188 366.003906 204.667969 354.890625 204.546875 " fill-opacity="1" fill-rule="nonzero"/></g><path fill="#d9d9d9" d="M 69.820312 332.980469 C 66.117188 332.980469 62.414062 332.023438 59.066406 329.878906 C 49.628906 323.90625 46.882812 311.476562 52.734375 302.039062 L 109.367188 212.195312 C 115.34375 202.753906 127.765625 200.003906 137.207031 205.863281 C 146.644531 211.835938 149.394531 224.257812 143.535156 233.699219 L 86.90625 323.546875 C 83.082031 329.636719 76.511719 332.980469 69.820312 332.980469 Z M 305.1875 332.980469 C 298.5 332.980469 291.929688 329.636719 288.101562 323.546875 L 231.472656 233.699219 C 225.496094 224.257812 228.363281 211.835938 237.804688 205.863281 C 247.242188 199.886719 259.671875 202.753906 265.644531 212.195312 L 322.273438 302.039062 C 328.246094 311.476562 325.382812 323.90625 315.941406 329.878906 C 312.59375 332.023438 308.894531 332.980469 305.1875 332.980469 Z M 169.703125 109.445312 L 187.503906 76.707031 L 154.648438 16.132812 C 149.269531 6.335938 137.085938 2.753906 127.289062 8.007812 C 117.492188 13.382812 113.910156 25.570312 119.164062 35.371094 L 167.910156 125.214844 C 168.148438 125.691406 168.386719 126.171875 168.746094 126.527344 C 166.59375 121.148438 166.714844 114.9375 169.703125 109.445312 " fill-opacity="1" fill-rule="nonzero"/></svg>