<svg
          width="32"
          height="32"
          viewBox="0 0 32 32"
          fill="none"
          xmlns="http://www.w3.org/2000/svg"
          stroke-width="1.5"
          class="size-8"
        >
          <path
            d="M22 17.3333C22.3682 17.3333 22.6667 17.0349 22.6667 16.6667C22.6667 16.2985 22.3682 16 22 16C21.6318 16 21.3333 16.2985 21.3333 16.6667C21.3333 17.0349 21.6318 17.3333 22 17.3333Z"
            stroke="#1D4ED8"
          ></path>
          <path
            d="M18.5924 8.56204C19.4812 8.78427 20.3499 9.33364 21.0165 10.0003C21.9055 9.33364 24.3167 7.99999 26 10.0003L22 13.6836"
            stroke="#1D4ED8"
          ></path>
          <path
            d="M10.7219 8.66699C1.12185 13.4669 4.12778 19.5556 7.01667 22L9.01667 26.6667H11.6833V24L12.6424 24.2143C13.9756 24.5123 15.358 24.5139 16.692 24.2191L17.6833 24V26.6667H20.35L22.35 22.6667L27.6833 20V17.3333C27.2389 17.3333 26.2167 17.0667 25.6833 16C25.6833 14.8889 25.1749 12.2756 24.1083 11.7422"
            stroke="#1D4ED8"
          ></path>
          <path
            d="M18.6667 9.33334C18.6667 11.5425 16.8759 13.3333 14.6667 13.3333C12.4575 13.3333 10.6667 11.5425 10.6667 9.33334C10.6667 7.12421 12.4575 5.33334 14.6667 5.33334C16.8759 5.33334 18.6667 7.12421 18.6667 9.33334Z"
            stroke="#93C5FD"
          ></path>
        </svg>
